<?xml version="1.0"?>
<!DOCTYPE svg PUBLIC "-//W3C//DTD SVG 1.0//EN" "http://www.w3.org/TR/2001/REC-SVG-20010904/DTD/svg10.dtd">
<svg xmlns="http://www.w3.org/2000/svg" xmlns:xlink="http://www.w3.org/1999/xlink" xmlns:jfreesvg="http://www.jfree.org/jfreesvg/svg" width="1746" height="1040" text-rendering="auto" shape-rendering="auto">
<defs></defs>
<line x1="1033.41" y1="859.02" x2="1078.62" y2="682.7" style="stroke-width: 0.5;stroke: rgb(0,0,0);stroke-opacity: 1.0;stroke-linecap: square;" /><g ><text x="1053.01" y="777.76" style="fill: rgb(0,0,0); fill-opacity: 1.0; font-family: Times New Roman; font-size: 12px;" >1</text></g><line x1="744.25" y1="703.65" x2="688.95" y2="790.03" style="stroke-width: 0.5;stroke: rgb(0,0,0);stroke-opacity: 1.0;stroke-linecap: square;" /><g ><text x="713.6" y="753.74" style="fill: rgb(0,0,0); fill-opacity: 1.0; font-family: Times New Roman; font-size: 12px;" >1</text></g><line x1="1005.63" y1="429.2" x2="1111.78" y2="519.42" style="stroke-width: 0.5;stroke: rgb(0,0,0);stroke-opacity: 1.0;stroke-linecap: square;" /><g ><text x="1055.71" y="481.21" style="fill: rgb(0,0,0); fill-opacity: 1.0; font-family: Times New Roman; font-size: 12px;" >1</text></g><line x1="1078.62" y1="682.7" x2="1111.78" y2="519.42" style="stroke-width: 0.5;stroke: rgb(0,0,0);stroke-opacity: 1.0;stroke-linecap: square;" /><g ><text x="1092.2" y="607.96" style="fill: rgb(0,0,0); fill-opacity: 1.0; font-family: Times New Roman; font-size: 12px;" >1</text></g><line x1="1111.78" y1="519.42" x2="1237.59" y2="569.95" style="stroke-width: 0.5;stroke: rgb(0,0,0);stroke-opacity: 1.0;stroke-linecap: square;" /><g ><text x="1171.68" y="551.58" style="fill: rgb(0,0,0); fill-opacity: 1.0; font-family: Times New Roman; font-size: 12px;" >1</text></g><line x1="1111.78" y1="519.42" x2="991.47" y2="492.37" style="stroke-width: 0.5;stroke: rgb(0,0,0);stroke-opacity: 1.0;stroke-linecap: square;" /><g ><text x="1048.63" y="512.79" style="fill: rgb(0,0,0); fill-opacity: 1.0; font-family: Times New Roman; font-size: 12px;" >1</text></g><line x1="1576.5" y1="514.8" x2="1576.31" y2="618.7" style="stroke-width: 0.5;stroke: rgb(0,0,0);stroke-opacity: 1.0;stroke-linecap: square;" /><g ><text x="1573.41" y="573.65" style="fill: rgb(0,0,0); fill-opacity: 1.0; font-family: Times New Roman; font-size: 12px;" >1</text></g><line x1="560.19" y1="411.78" x2="425.32" y2="410.84" style="stroke-width: 0.5;stroke: rgb(0,0,0);stroke-opacity: 1.0;stroke-linecap: square;" /><g ><text x="489.76" y="418.21" style="fill: rgb(0,0,0); fill-opacity: 1.0; font-family: Times New Roman; font-size: 12px;" >1</text></g><line x1="1111.78" y1="519.42" x2="1146.12" y2="383.46" style="stroke-width: 0.5;stroke: rgb(0,0,0);stroke-opacity: 1.0;stroke-linecap: square;" /><g ><text x="1125.95" y="458.34" style="fill: rgb(0,0,0); fill-opacity: 1.0; font-family: Times New Roman; font-size: 12px;" >1</text></g><line x1="1146.12" y1="383.46" x2="1173.35" y2="266.93" style="stroke-width: 0.5;stroke: rgb(0,0,0);stroke-opacity: 1.0;stroke-linecap: square;" /><g ><text x="1156.74" y="332.09" style="fill: rgb(0,0,0); fill-opacity: 1.0; font-family: Times New Roman; font-size: 12px;" >1</text></g><line x1="1111.78" y1="519.42" x2="1204.93" y2="439" style="stroke-width: 0.5;stroke: rgb(0,0,0);stroke-opacity: 1.0;stroke-linecap: square;" /><g ><text x="1155.36" y="486.11" style="fill: rgb(0,0,0); fill-opacity: 1.0; font-family: Times New Roman; font-size: 12px;" >1</text></g><line x1="1204.93" y1="439" x2="1281.17" y2="366.04" style="stroke-width: 0.5;stroke: rgb(0,0,0);stroke-opacity: 1.0;stroke-linecap: square;" /><g ><text x="1240.05" y="409.42" style="fill: rgb(0,0,0); fill-opacity: 1.0; font-family: Times New Roman; font-size: 12px;" >1</text></g><line x1="425.32" y1="410.84" x2="335" y2="410.05" style="stroke-width: 0.5;stroke: rgb(0,0,0);stroke-opacity: 1.0;stroke-linecap: square;" /><g ><text x="377.16" y="417.34" style="fill: rgb(0,0,0); fill-opacity: 1.0; font-family: Times New Roman; font-size: 12px;" >1</text></g><line x1="1111.78" y1="519.42" x2="1004.54" y2="582.76" style="stroke-width: 0.5;stroke: rgb(0,0,0);stroke-opacity: 1.0;stroke-linecap: square;" /><g ><text x="1055.16" y="557.99" style="fill: rgb(0,0,0); fill-opacity: 1.0; font-family: Times New Roman; font-size: 12px;" >1</text></g><line x1="1173.35" y1="266.93" x2="1207.11" y2="170" style="stroke-width: 0.5;stroke: rgb(0,0,0);stroke-opacity: 1.0;stroke-linecap: square;" /><g ><text x="1187.23" y="225.36" style="fill: rgb(0,0,0); fill-opacity: 1.0; font-family: Times New Roman; font-size: 12px;" >1</text></g><line x1="1111.78" y1="519.42" x2="1181.26" y2="610.81" style="stroke-width: 0.5;stroke: rgb(0,0,0);stroke-opacity: 1.0;stroke-linecap: square;" /><g ><text x="1143.52" y="572.01" style="fill: rgb(0,0,0); fill-opacity: 1.0; font-family: Times New Roman; font-size: 12px;" >1</text></g><line x1="1111.78" y1="519.42" x2="1280.09" y2="518.25" style="stroke-width: 0.5;stroke: rgb(0,0,0);stroke-opacity: 1.0;stroke-linecap: square;" /><g ><text x="1192.94" y="525.73" style="fill: rgb(0,0,0); fill-opacity: 1.0; font-family: Times New Roman; font-size: 12px;" >1</text></g><line x1="1280.09" y1="518.25" x2="1338.89" y2="642.66" style="stroke-width: 0.5;stroke: rgb(0,0,0);stroke-opacity: 1.0;stroke-linecap: square;" /><g ><text x="1306.49" y="587.36" style="fill: rgb(0,0,0); fill-opacity: 1.0; font-family: Times New Roman; font-size: 12px;" >1</text></g><line x1="1230.77" y1="870.6" x2="1234.72" y2="769.14" style="stroke-width: 0.5;stroke: rgb(0,0,0);stroke-opacity: 1.0;stroke-linecap: square;" /><g ><text x="1229.75" y="826.77" style="fill: rgb(0,0,0); fill-opacity: 1.0; font-family: Times New Roman; font-size: 12px;" >1</text></g><line x1="1234.72" y1="769.14" x2="1318.63" y2="826.25" style="stroke-width: 0.5;stroke: rgb(0,0,0);stroke-opacity: 1.0;stroke-linecap: square;" /><g ><text x="1273.68" y="804.59" style="fill: rgb(0,0,0); fill-opacity: 1.0; font-family: Times New Roman; font-size: 12px;" >1</text></g><line x1="1280.09" y1="518.25" x2="1420.25" y2="517.1" style="stroke-width: 0.5;stroke: rgb(0,0,0);stroke-opacity: 1.0;stroke-linecap: square;" /><g ><text x="1347.17" y="524.57" style="fill: rgb(0,0,0); fill-opacity: 1.0; font-family: Times New Roman; font-size: 12px;" >1</text></g><line x1="1420.25" y1="517.1" x2="1422.55" y2="620.5" style="stroke-width: 0.5;stroke: rgb(0,0,0);stroke-opacity: 1.0;stroke-linecap: square;" /><g ><text x="1418.4" y="575.7" style="fill: rgb(0,0,0); fill-opacity: 1.0; font-family: Times New Roman; font-size: 12px;" >1</text></g><line x1="914.15" y1="439" x2="867.32" y2="518.51" style="stroke-width: 0.5;stroke: rgb(0,0,0);stroke-opacity: 1.0;stroke-linecap: square;" /><g ><text x="887.73" y="485.66" style="fill: rgb(0,0,0); fill-opacity: 1.0; font-family: Times New Roman; font-size: 12px;" >1</text></g><line x1="560.19" y1="411.78" x2="566.73" y2="518.51" style="stroke-width: 0.5;stroke: rgb(0,0,0);stroke-opacity: 1.0;stroke-linecap: square;" /><g ><text x="560.46" y="472.04" style="fill: rgb(0,0,0); fill-opacity: 1.0; font-family: Times New Roman; font-size: 12px;" >1</text></g><line x1="867.32" y1="518.51" x2="720.29" y2="517.42" style="stroke-width: 0.5;stroke: rgb(0,0,0);stroke-opacity: 1.0;stroke-linecap: square;" /><g ><text x="790.8" y="524.86" style="fill: rgb(0,0,0); fill-opacity: 1.0; font-family: Times New Roman; font-size: 12px;" >1</text></g><line x1="1017.01" y1="356.26" x2="1015.43" y2="228.81" style="stroke-width: 0.5;stroke: rgb(0,0,0);stroke-opacity: 1.0;stroke-linecap: square;" /><g ><text x="1013.22" y="299.44" style="fill: rgb(0,0,0); fill-opacity: 1.0; font-family: Times New Roman; font-size: 12px;" >2</text></g><line x1="1111.78" y1="519.42" x2="1132.04" y2="659.62" style="stroke-width: 0.5;stroke: rgb(0,0,0);stroke-opacity: 1.0;stroke-linecap: square;" /><g ><text x="1118.91" y="596.42" style="fill: rgb(0,0,0); fill-opacity: 1.0; font-family: Times New Roman; font-size: 12px;" >2</text></g><line x1="1407.5" y1="366.04" x2="1280.09" y2="518.25" style="stroke-width: 0.5;stroke: rgb(0,0,0);stroke-opacity: 1.0;stroke-linecap: square;" /><g ><text x="1340.8" y="449.04" style="fill: rgb(0,0,0); fill-opacity: 1.0; font-family: Times New Roman; font-size: 12px;" >2</text></g><line x1="1576.5" y1="514.8" x2="1420.25" y2="517.1" style="stroke-width: 0.5;stroke: rgb(0,0,0);stroke-opacity: 1.0;stroke-linecap: square;" /><g ><text x="1495.38" y="522.85" style="fill: rgb(0,0,0); fill-opacity: 1.0; font-family: Times New Roman; font-size: 12px;" >2</text></g><line x1="1017.01" y1="356.26" x2="1111.78" y2="519.42" style="stroke-width: 0.5;stroke: rgb(0,0,0);stroke-opacity: 1.0;stroke-linecap: square;" /><g ><text x="1061.39" y="444.74" style="fill: rgb(0,0,0); fill-opacity: 1.0; font-family: Times New Roman; font-size: 12px;" >3</text></g><line x1="1087.31" y1="346.43" x2="1111.78" y2="519.42" style="stroke-width: 0.5;stroke: rgb(0,0,0);stroke-opacity: 1.0;stroke-linecap: square;" /><g ><text x="1096.55" y="439.82" style="fill: rgb(0,0,0); fill-opacity: 1.0; font-family: Times New Roman; font-size: 12px;" >3</text></g><line x1="1111.78" y1="519.42" x2="1242.18" y2="631.99" style="stroke-width: 0.5;stroke: rgb(0,0,0);stroke-opacity: 1.0;stroke-linecap: square;" /><g ><text x="1173.98" y="582.6" style="fill: rgb(0,0,0); fill-opacity: 1.0; font-family: Times New Roman; font-size: 12px;" >3</text></g><line x1="868.41" y1="705.83" x2="867.32" y2="518.51" style="stroke-width: 0.5;stroke: rgb(0,0,0);stroke-opacity: 1.0;stroke-linecap: square;" /><g ><text x="864.86" y="619.07" style="fill: rgb(0,0,0); fill-opacity: 1.0; font-family: Times New Roman; font-size: 12px;" >2</text></g><line x1="1111.78" y1="519.42" x2="994.34" y2="641.32" style="stroke-width: 0.5;stroke: rgb(0,0,0);stroke-opacity: 1.0;stroke-linecap: square;" /><g ><text x="1050.06" y="587.27" style="fill: rgb(0,0,0); fill-opacity: 1.0; font-family: Times New Roman; font-size: 12px;" >3</text></g><line x1="345.5" y1="517.61" x2="566.73" y2="518.51" style="stroke-width: 0.5;stroke: rgb(0,0,0);stroke-opacity: 1.0;stroke-linecap: square;" /><g ><text x="453.11" y="524.96" style="fill: rgb(0,0,0); fill-opacity: 1.0; font-family: Times New Roman; font-size: 12px;" >4</text></g><line x1="744.25" y1="703.65" x2="867.32" y2="518.51" style="stroke-width: 0.5;stroke: rgb(0,0,0);stroke-opacity: 1.0;stroke-linecap: square;" /><g ><text x="802.78" y="617.98" style="fill: rgb(0,0,0); fill-opacity: 1.0; font-family: Times New Roman; font-size: 12px;" >4</text></g><line x1="1111.78" y1="519.42" x2="867.32" y2="518.51" style="stroke-width: 0.5;stroke: rgb(0,0,0);stroke-opacity: 1.0;stroke-linecap: square;" /><g ><text x="986.55" y="525.86" style="fill: rgb(0,0,0); fill-opacity: 1.0; font-family: Times New Roman; font-size: 12px;" >4</text></g><line x1="566.73" y1="518.51" x2="720.29" y2="517.42" style="stroke-width: 0.5;stroke: rgb(0,0,0);stroke-opacity: 1.0;stroke-linecap: square;" /><g ><text x="640.51" y="524.86" style="fill: rgb(0,0,0); fill-opacity: 1.0; font-family: Times New Roman; font-size: 12px;" >2</text></g><line x1="1111.78" y1="519.42" x2="1234.72" y2="769.14" style="stroke-width: 0.5;stroke: rgb(0,0,0);stroke-opacity: 1.0;stroke-linecap: square;" /><g ><text x="1170.25" y="651.18" style="fill: rgb(0,0,0); fill-opacity: 1.0; font-family: Times New Roman; font-size: 12px;" >7</text></g><line x1="605.94" y1="276.73" x2="867.32" y2="518.51" style="stroke-width: 0.5;stroke: rgb(0,0,0);stroke-opacity: 1.0;stroke-linecap: square;" /><g ><text x="733.63" y="404.52" style="fill: rgb(0,0,0); fill-opacity: 1.0; font-family: Times New Roman; font-size: 12px;" >8</text></g><line x1="517.07" y1="773.73" x2="720.29" y2="517.42" style="stroke-width: 0.5;stroke: rgb(0,0,0);stroke-opacity: 1.0;stroke-linecap: square;" /><g ><text x="615.68" y="652.47" style="fill: rgb(0,0,0); fill-opacity: 1.0; font-family: Times New Roman; font-size: 12px;" >9</text></g><ellipse cx="1033.41" cy="859.02" rx="66.55" ry="66.55" style="fill: rgb(255,255,255); fill-opacity: 1.0" /><ellipse cx="1033.41" cy="859.02" rx="66.55" ry="66.55" style="stroke-width: 0.5;stroke: rgb(0,0,0);stroke-opacity: 1.0;stroke-linecap: square;; fill: none" /><ellipse cx="1033.41" cy="859.02" rx="66.55" ry="66.55" style="fill: rgb(166,206,227); fill-opacity: 1.0" /><ellipse cx="1407.5" cy="366.04" rx="75" ry="75" style="fill: rgb(255,255,255); fill-opacity: 1.0" /><ellipse cx="1407.5" cy="366.04" rx="75" ry="75" style="stroke-width: 0.5;stroke: rgb(0,0,0);stroke-opacity: 1.0;stroke-linecap: square;; fill: none" /><ellipse cx="1407.5" cy="366.04" rx="75" ry="75" style="fill: rgb(166,206,227); fill-opacity: 1.0" /><ellipse cx="1017.01" cy="356.26" rx="20.95" ry="20.95" style="fill: rgb(255,255,255); fill-opacity: 1.0" /><ellipse cx="1017.01" cy="356.26" rx="20.95" ry="20.95" style="stroke-width: 0.5;stroke: rgb(0,0,0);stroke-opacity: 1.0;stroke-linecap: square;; fill: none" /><ellipse cx="1017.01" cy="356.26" rx="20.95" ry="20.95" style="fill: rgb(166,206,227); fill-opacity: 1.0" /><ellipse cx="1338.89" cy="642.66" rx="42.91" ry="42.91" style="fill: rgb(255,255,255); fill-opacity: 1.0" /><ellipse cx="1338.89" cy="642.66" rx="42.91" ry="42.91" style="stroke-width: 0.5;stroke: rgb(0,0,0);stroke-opacity: 1.0;stroke-linecap: square;; fill: none" /><g style="fill: rgb(166,206,227); fill-opacity: 1.0; stroke: none" ><path d="M 1381.8 642.66 C 1381.8 621.69 1366.64 603.8 1345.95 600.34 C 1325.27 596.89 1305.12 608.9 1298.31 628.73 C 1291.5 648.57 1300.03 670.42 1318.47 680.4 C 1336.91 690.38 1359.87 685.57 1372.75 669.02 L 1338.89 642.66 Z "/></g><g style="fill: rgb(253,191,111); fill-opacity: 1.0; stroke: none" ><path d="M 1372.75 669.02 C 1375.66 665.28 1377.93 661.08 1379.47 656.6 L 1338.89 642.66 Z "/></g><g style="fill: rgb(51,160,44); fill-opacity: 1.0; stroke: none" ><path d="M 1379.47 656.6 C 1381.01 652.11 1381.8 647.4 1381.8 642.66 L 1338.89 642.66 Z "/></g><ellipse cx="1005.63" cy="429.2" rx="26.01" ry="26.01" style="fill: rgb(255,255,255); fill-opacity: 1.0" /><ellipse cx="1005.63" cy="429.2" rx="26.01" ry="26.01" style="stroke-width: 0.5;stroke: rgb(0,0,0);stroke-opacity: 1.0;stroke-linecap: square;; fill: none" /><ellipse cx="1005.63" cy="429.2" rx="26.01" ry="26.01" style="fill: rgb(166,206,227); fill-opacity: 1.0" /><ellipse cx="1078.62" cy="682.7" rx="37.84" ry="37.84" style="fill: rgb(255,255,255); fill-opacity: 1.0" /><ellipse cx="1078.62" cy="682.7" rx="37.84" ry="37.84" style="stroke-width: 0.5;stroke: rgb(0,0,0);stroke-opacity: 1.0;stroke-linecap: square;; fill: none" /><ellipse cx="1078.62" cy="682.7" rx="37.84" ry="37.84" style="fill: rgb(166,206,227); fill-opacity: 1.0" /><ellipse cx="1237.59" cy="569.95" rx="29.39" ry="29.39" style="fill: rgb(255,255,255); fill-opacity: 1.0" /><ellipse cx="1237.59" cy="569.95" rx="29.39" ry="29.39" style="stroke-width: 0.5;stroke: rgb(0,0,0);stroke-opacity: 1.0;stroke-linecap: square;; fill: none" /><ellipse cx="1237.59" cy="569.95" rx="29.39" ry="29.39" style="fill: rgb(166,206,227); fill-opacity: 1.0" /><ellipse cx="744.25" cy="703.65" rx="20.95" ry="20.95" style="fill: rgb(255,255,255); fill-opacity: 1.0" /><ellipse cx="744.25" cy="703.65" rx="20.95" ry="20.95" style="stroke-width: 0.5;stroke: rgb(0,0,0);stroke-opacity: 1.0;stroke-linecap: square;; fill: none" /><ellipse cx="744.25" cy="703.65" rx="20.95" ry="20.95" style="fill: rgb(166,206,227); fill-opacity: 1.0" /><ellipse cx="1576.5" cy="514.8" rx="14.19" ry="14.19" style="fill: rgb(255,255,255); fill-opacity: 1.0" /><ellipse cx="1576.5" cy="514.8" rx="14.19" ry="14.19" style="stroke-width: 0.5;stroke: rgb(0,0,0);stroke-opacity: 1.0;stroke-linecap: square;; fill: none" /><ellipse cx="1576.5" cy="514.8" rx="14.19" ry="14.19" style="fill: rgb(166,206,227); fill-opacity: 1.0" /><ellipse cx="1422.55" cy="620.5" rx="17.57" ry="17.57" style="fill: rgb(255,255,255); fill-opacity: 1.0" /><ellipse cx="1422.55" cy="620.5" rx="17.57" ry="17.57" style="stroke-width: 0.5;stroke: rgb(0,0,0);stroke-opacity: 1.0;stroke-linecap: square;; fill: none" /><ellipse cx="1422.55" cy="620.5" rx="17.57" ry="17.57" style="fill: rgb(166,206,227); fill-opacity: 1.0" /><ellipse cx="688.95" cy="790.03" rx="12.5" ry="12.5" style="fill: rgb(255,255,255); fill-opacity: 1.0" /><ellipse cx="688.95" cy="790.03" rx="12.5" ry="12.5" style="stroke-width: 0.5;stroke: rgb(0,0,0);stroke-opacity: 1.0;stroke-linecap: square;; fill: none" /><ellipse cx="688.95" cy="790.03" rx="12.5" ry="12.5" style="fill: rgb(166,206,227); fill-opacity: 1.0" /><ellipse cx="1230.77" cy="870.6" rx="12.5" ry="12.5" style="fill: rgb(255,255,255); fill-opacity: 1.0" /><ellipse cx="1230.77" cy="870.6" rx="12.5" ry="12.5" style="stroke-width: 0.5;stroke: rgb(0,0,0);stroke-opacity: 1.0;stroke-linecap: square;; fill: none" /><ellipse cx="1230.77" cy="870.6" rx="12.5" ry="12.5" style="fill: rgb(166,206,227); fill-opacity: 1.0" /><ellipse cx="1087.31" cy="346.43" rx="14.19" ry="14.19" style="fill: rgb(255,255,255); fill-opacity: 1.0" /><ellipse cx="1087.31" cy="346.43" rx="14.19" ry="14.19" style="stroke-width: 0.5;stroke: rgb(0,0,0);stroke-opacity: 1.0;stroke-linecap: square;; fill: none" /><ellipse cx="1087.31" cy="346.43" rx="14.19" ry="14.19" style="fill: rgb(166,206,227); fill-opacity: 1.0" /><ellipse cx="1111.78" cy="519.42" rx="31.08" ry="31.08" style="fill: rgb(255,255,255); fill-opacity: 1.0" /><ellipse cx="1111.78" cy="519.42" rx="31.08" ry="31.08" style="stroke-width: 0.5;stroke: rgb(0,0,0);stroke-opacity: 1.0;stroke-linecap: square;; fill: none" /><g style="fill: rgb(77,0,26); fill-opacity: 1.0; stroke: none" ><path d="M 1142.86 519.42 C 1142.86 513.96 1141.43 508.6 1138.7 503.88 L 1111.78 519.42 Z "/></g><g style="fill: rgb(31,120,180); fill-opacity: 1.0; stroke: none" ><path d="M 1138.7 503.88 C 1133.15 494.26 1122.89 488.34 1111.78 488.34 L 1111.78 519.42 Z "/></g><g style="fill: rgb(166,206,227); fill-opacity: 1.0; stroke: none" ><path d="M 1111.78 488.34 C 1094.62 488.34 1080.7 502.25 1080.7 519.42 C 1080.7 536.58 1094.62 550.5 1111.78 550.5 L 1111.78 519.42 Z "/></g><g style="fill: rgb(179,179,179); fill-opacity: 1.0; stroke: none" ><path d="M 1111.78 550.5 C 1122.89 550.5 1133.15 544.58 1138.7 534.96 L 1111.78 519.42 Z "/></g><g style="fill: rgb(253,191,111); fill-opacity: 1.0; stroke: none" ><path d="M 1138.7 534.96 C 1141.43 530.23 1142.86 524.87 1142.86 519.42 L 1111.78 519.42 Z "/></g><ellipse cx="991.47" cy="492.37" rx="14.19" ry="14.19" style="fill: rgb(255,255,255); fill-opacity: 1.0" /><ellipse cx="991.47" cy="492.37" rx="14.19" ry="14.19" style="stroke-width: 0.5;stroke: rgb(0,0,0);stroke-opacity: 1.0;stroke-linecap: square;; fill: none" /><g style="fill: rgb(202,178,214); fill-opacity: 1.0; stroke: none" ><path d="M 1005.66 492.37 C 1005.66 484.53 999.31 478.18 991.47 478.18 C 983.64 478.18 977.28 484.53 977.28 492.37 L 991.47 492.37 Z "/></g><g style="fill: rgb(166,206,227); fill-opacity: 1.0; stroke: none" ><path d="M 977.28 492.37 C 977.28 500.21 983.64 506.56 991.47 506.56 C 999.31 506.56 1005.66 500.21 1005.66 492.37 L 991.47 492.37 Z "/></g><ellipse cx="1576.31" cy="618.7" rx="12.5" ry="12.5" style="fill: rgb(255,255,255); fill-opacity: 1.0" /><ellipse cx="1576.31" cy="618.7" rx="12.5" ry="12.5" style="stroke-width: 0.5;stroke: rgb(0,0,0);stroke-opacity: 1.0;stroke-linecap: square;; fill: none" /><ellipse cx="1576.31" cy="618.7" rx="12.5" ry="12.5" style="fill: rgb(166,206,227); fill-opacity: 1.0" /><ellipse cx="1015.43" cy="228.81" rx="12.5" ry="12.5" style="fill: rgb(255,255,255); fill-opacity: 1.0" /><ellipse cx="1015.43" cy="228.81" rx="12.5" ry="12.5" style="stroke-width: 0.5;stroke: rgb(0,0,0);stroke-opacity: 1.0;stroke-linecap: square;; fill: none" /><ellipse cx="1015.43" cy="228.81" rx="12.5" ry="12.5" style="fill: rgb(106,61,154); fill-opacity: 1.0" /><ellipse cx="560.19" cy="411.78" rx="29.39" ry="29.39" style="fill: rgb(255,255,255); fill-opacity: 1.0" /><ellipse cx="560.19" cy="411.78" rx="29.39" ry="29.39" style="stroke-width: 0.5;stroke: rgb(0,0,0);stroke-opacity: 1.0;stroke-linecap: square;; fill: none" /><ellipse cx="560.19" cy="411.78" rx="29.39" ry="29.39" style="fill: rgb(166,206,227); fill-opacity: 1.0" /><ellipse cx="1318.63" cy="826.25" rx="12.5" ry="12.5" style="fill: rgb(255,255,255); fill-opacity: 1.0" /><ellipse cx="1318.63" cy="826.25" rx="12.5" ry="12.5" style="stroke-width: 0.5;stroke: rgb(0,0,0);stroke-opacity: 1.0;stroke-linecap: square;; fill: none" /><ellipse cx="1318.63" cy="826.25" rx="12.5" ry="12.5" style="fill: rgb(166,206,227); fill-opacity: 1.0" /><ellipse cx="425.32" cy="410.84" rx="24.32" ry="24.32" style="fill: rgb(255,255,255); fill-opacity: 1.0" /><ellipse cx="425.32" cy="410.84" rx="24.32" ry="24.32" style="stroke-width: 0.5;stroke: rgb(0,0,0);stroke-opacity: 1.0;stroke-linecap: square;; fill: none" /><ellipse cx="425.32" cy="410.84" rx="24.32" ry="24.32" style="fill: rgb(166,206,227); fill-opacity: 1.0" /><ellipse cx="345.5" cy="517.61" rx="12.5" ry="12.5" style="fill: rgb(255,255,255); fill-opacity: 1.0" /><ellipse cx="345.5" cy="517.61" rx="12.5" ry="12.5" style="stroke-width: 0.5;stroke: rgb(0,0,0);stroke-opacity: 1.0;stroke-linecap: square;; fill: none" /><ellipse cx="345.5" cy="517.61" rx="12.5" ry="12.5" style="fill: rgb(166,206,227); fill-opacity: 1.0" /><ellipse cx="1146.12" cy="383.46" rx="14.19" ry="14.19" style="fill: rgb(255,255,255); fill-opacity: 1.0" /><ellipse cx="1146.12" cy="383.46" rx="14.19" ry="14.19" style="stroke-width: 0.5;stroke: rgb(0,0,0);stroke-opacity: 1.0;stroke-linecap: square;; fill: none" /><ellipse cx="1146.12" cy="383.46" rx="14.19" ry="14.19" style="fill: rgb(166,206,227); fill-opacity: 1.0" /><ellipse cx="1173.35" cy="266.93" rx="17.57" ry="17.57" style="fill: rgb(255,255,255); fill-opacity: 1.0" /><ellipse cx="1173.35" cy="266.93" rx="17.57" ry="17.57" style="stroke-width: 0.5;stroke: rgb(0,0,0);stroke-opacity: 1.0;stroke-linecap: square;; fill: none" /><ellipse cx="1173.35" cy="266.93" rx="17.57" ry="17.57" style="fill: rgb(166,206,227); fill-opacity: 1.0" /><ellipse cx="914.15" cy="439" rx="12.5" ry="12.5" style="fill: rgb(255,255,255); fill-opacity: 1.0" /><ellipse cx="914.15" cy="439" rx="12.5" ry="12.5" style="stroke-width: 0.5;stroke: rgb(0,0,0);stroke-opacity: 1.0;stroke-linecap: square;; fill: none" /><ellipse cx="914.15" cy="439" rx="12.5" ry="12.5" style="fill: rgb(166,206,227); fill-opacity: 1.0" /><ellipse cx="1204.93" cy="439" rx="12.5" ry="12.5" style="fill: rgb(255,255,255); fill-opacity: 1.0" /><ellipse cx="1204.93" cy="439" rx="12.5" ry="12.5" style="stroke-width: 0.5;stroke: rgb(0,0,0);stroke-opacity: 1.0;stroke-linecap: square;; fill: none" /><ellipse cx="1204.93" cy="439" rx="12.5" ry="12.5" style="fill: rgb(166,206,227); fill-opacity: 1.0" /><ellipse cx="1281.17" cy="366.04" rx="17.57" ry="17.57" style="fill: rgb(255,255,255); fill-opacity: 1.0" /><ellipse cx="1281.17" cy="366.04" rx="17.57" ry="17.57" style="stroke-width: 0.5;stroke: rgb(0,0,0);stroke-opacity: 1.0;stroke-linecap: square;; fill: none" /><g style="fill: rgb(31,120,180); fill-opacity: 1.0; stroke: none" ><path d="M 1298.74 366.04 C 1298.74 356.33 1290.87 348.47 1281.17 348.47 L 1281.17 366.04 Z "/></g><g style="fill: rgb(166,206,227); fill-opacity: 1.0; stroke: none" ><path d="M 1281.17 348.47 C 1271.47 348.47 1263.6 356.33 1263.6 366.04 C 1263.6 375.74 1271.47 383.6 1281.17 383.6 C 1290.87 383.6 1298.74 375.74 1298.74 366.04 L 1281.17 366.04 Z "/></g><ellipse cx="335" cy="410.05" rx="12.5" ry="12.5" style="fill: rgb(255,255,255); fill-opacity: 1.0" /><ellipse cx="335" cy="410.05" rx="12.5" ry="12.5" style="stroke-width: 0.5;stroke: rgb(0,0,0);stroke-opacity: 1.0;stroke-linecap: square;; fill: none" /><ellipse cx="335" cy="410.05" rx="12.5" ry="12.5" style="fill: rgb(166,206,227); fill-opacity: 1.0" /><ellipse cx="1004.54" cy="582.76" rx="12.5" ry="12.5" style="fill: rgb(255,255,255); fill-opacity: 1.0" /><ellipse cx="1004.54" cy="582.76" rx="12.5" ry="12.5" style="stroke-width: 0.5;stroke: rgb(0,0,0);stroke-opacity: 1.0;stroke-linecap: square;; fill: none" /><ellipse cx="1004.54" cy="582.76" rx="12.5" ry="12.5" style="fill: rgb(166,206,227); fill-opacity: 1.0" /><ellipse cx="1207.11" cy="170" rx="14.19" ry="14.19" style="fill: rgb(255,255,255); fill-opacity: 1.0" /><ellipse cx="1207.11" cy="170" rx="14.19" ry="14.19" style="stroke-width: 0.5;stroke: rgb(0,0,0);stroke-opacity: 1.0;stroke-linecap: square;; fill: none" /><g style="fill: rgb(178,223,138); fill-opacity: 1.0; stroke: none" ><path d="M 1221.3 170 C 1221.3 162.16 1214.95 155.81 1207.11 155.81 C 1199.28 155.81 1192.92 162.16 1192.92 170 L 1207.11 170 Z "/></g><g style="fill: rgb(251,154,153); fill-opacity: 1.0; stroke: none" ><path d="M 1192.92 170 C 1192.92 177.84 1199.28 184.19 1207.11 184.19 C 1214.95 184.19 1221.3 177.84 1221.3 170 L 1207.11 170 Z "/></g><ellipse cx="605.94" cy="276.73" rx="12.5" ry="12.5" style="fill: rgb(255,255,255); fill-opacity: 1.0" /><ellipse cx="605.94" cy="276.73" rx="12.5" ry="12.5" style="stroke-width: 0.5;stroke: rgb(0,0,0);stroke-opacity: 1.0;stroke-linecap: square;; fill: none" /><ellipse cx="605.94" cy="276.73" rx="12.5" ry="12.5" style="fill: rgb(255,127,0); fill-opacity: 1.0" /><ellipse cx="1242.18" cy="631.99" rx="12.5" ry="12.5" style="fill: rgb(255,255,255); fill-opacity: 1.0" /><ellipse cx="1242.18" cy="631.99" rx="12.5" ry="12.5" style="stroke-width: 0.5;stroke: rgb(0,0,0);stroke-opacity: 1.0;stroke-linecap: square;; fill: none" /><ellipse cx="1242.18" cy="631.99" rx="12.5" ry="12.5" style="fill: rgb(255,255,0); fill-opacity: 1.0" /><ellipse cx="517.07" cy="773.73" rx="12.5" ry="12.5" style="fill: rgb(255,255,255); fill-opacity: 1.0" /><ellipse cx="517.07" cy="773.73" rx="12.5" ry="12.5" style="stroke-width: 0.5;stroke: rgb(0,0,0);stroke-opacity: 1.0;stroke-linecap: square;; fill: none" /><ellipse cx="517.07" cy="773.73" rx="12.5" ry="12.5" style="fill: rgb(255,255,0); fill-opacity: 1.0" /><ellipse cx="868.41" cy="705.83" rx="12.5" ry="12.5" style="fill: rgb(255,255,255); fill-opacity: 1.0" /><ellipse cx="868.41" cy="705.83" rx="12.5" ry="12.5" style="stroke-width: 0.5;stroke: rgb(0,0,0);stroke-opacity: 1.0;stroke-linecap: square;; fill: none" /><ellipse cx="868.41" cy="705.83" rx="12.5" ry="12.5" style="fill: rgb(255,255,0); fill-opacity: 1.0" /><ellipse cx="994.34" cy="641.32" rx="14.19" ry="14.19" style="fill: rgb(255,255,255); fill-opacity: 1.0" /><ellipse cx="994.34" cy="641.32" rx="14.19" ry="14.19" style="stroke-width: 0.5;stroke: rgb(0,0,0);stroke-opacity: 1.0;stroke-linecap: square;; fill: none" /><g style="fill: rgb(179,179,179); fill-opacity: 1.0; stroke: none" ><path d="M 1008.53 641.32 C 1008.53 633.48 1002.18 627.13 994.34 627.13 C 986.5 627.13 980.15 633.48 980.15 641.32 L 994.34 641.32 Z "/></g><g style="fill: rgb(253,191,111); fill-opacity: 1.0; stroke: none" ><path d="M 980.15 641.32 C 980.15 649.15 986.5 655.51 994.34 655.51 C 1002.18 655.51 1008.53 649.15 1008.53 641.32 L 994.34 641.32 Z "/></g><ellipse cx="1132.04" cy="659.62" rx="12.5" ry="12.5" style="fill: rgb(255,255,255); fill-opacity: 1.0" /><ellipse cx="1132.04" cy="659.62" rx="12.5" ry="12.5" style="stroke-width: 0.5;stroke: rgb(0,0,0);stroke-opacity: 1.0;stroke-linecap: square;; fill: none" /><ellipse cx="1132.04" cy="659.62" rx="12.5" ry="12.5" style="fill: rgb(227,26,28); fill-opacity: 1.0" /><ellipse cx="1181.26" cy="610.81" rx="12.5" ry="12.5" style="fill: rgb(255,255,255); fill-opacity: 1.0" /><ellipse cx="1181.26" cy="610.81" rx="12.5" ry="12.5" style="stroke-width: 0.5;stroke: rgb(0,0,0);stroke-opacity: 1.0;stroke-linecap: square;; fill: none" /><ellipse cx="1181.26" cy="610.81" rx="12.5" ry="12.5" style="fill: rgb(106,61,154); fill-opacity: 1.0" /><ellipse cx="1280.09" cy="518.25" rx="12.5" ry="12.5" style="fill: rgb(255,255,255); fill-opacity: 1.0" /><ellipse cx="1280.09" cy="518.25" rx="12.5" ry="12.5" style="stroke-width: 0.5;stroke: rgb(0,0,0);stroke-opacity: 1.0;stroke-linecap: square;; fill: none" /><ellipse cx="1280.09" cy="518.25" rx="12.5" ry="12.5" style="fill: rgb(255,255,255); fill-opacity: 1.0" /><ellipse cx="1234.72" cy="769.14" rx="12.5" ry="12.5" style="fill: rgb(255,255,255); fill-opacity: 1.0" /><ellipse cx="1234.72" cy="769.14" rx="12.5" ry="12.5" style="stroke-width: 0.5;stroke: rgb(0,0,0);stroke-opacity: 1.0;stroke-linecap: square;; fill: none" /><ellipse cx="1234.72" cy="769.14" rx="12.5" ry="12.5" style="fill: rgb(255,255,255); fill-opacity: 1.0" /><ellipse cx="1420.25" cy="517.1" rx="12.5" ry="12.5" style="fill: rgb(255,255,255); fill-opacity: 1.0" /><ellipse cx="1420.25" cy="517.1" rx="12.5" ry="12.5" style="stroke-width: 0.5;stroke: rgb(0,0,0);stroke-opacity: 1.0;stroke-linecap: square;; fill: none" /><ellipse cx="1420.25" cy="517.1" rx="12.5" ry="12.5" style="fill: rgb(255,255,255); fill-opacity: 1.0" /><ellipse cx="867.32" cy="518.51" rx="12.5" ry="12.5" style="fill: rgb(255,255,255); fill-opacity: 1.0" /><ellipse cx="867.32" cy="518.51" rx="12.5" ry="12.5" style="stroke-width: 0.5;stroke: rgb(0,0,0);stroke-opacity: 1.0;stroke-linecap: square;; fill: none" /><ellipse cx="867.32" cy="518.51" rx="12.5" ry="12.5" style="fill: rgb(255,255,255); fill-opacity: 1.0" /><ellipse cx="566.73" cy="518.51" rx="12.5" ry="12.5" style="fill: rgb(255,255,255); fill-opacity: 1.0" /><ellipse cx="566.73" cy="518.51" rx="12.5" ry="12.5" style="stroke-width: 0.5;stroke: rgb(0,0,0);stroke-opacity: 1.0;stroke-linecap: square;; fill: none" /><ellipse cx="566.73" cy="518.51" rx="12.5" ry="12.5" style="fill: rgb(255,255,255); fill-opacity: 1.0" /><ellipse cx="720.29" cy="517.42" rx="12.5" ry="12.5" style="fill: rgb(255,255,255); fill-opacity: 1.0" /><ellipse cx="720.29" cy="517.42" rx="12.5" ry="12.5" style="stroke-width: 0.5;stroke: rgb(0,0,0);stroke-opacity: 1.0;stroke-linecap: square;; fill: none" /><ellipse cx="720.29" cy="517.42" rx="12.5" ry="12.5" style="fill: rgb(255,255,255); fill-opacity: 1.0" /><rect x="20" y="17" width="16" height="16" style="fill: rgb(166,206,227); fill-opacity: 1.0" /><g ><text x="40" y="30" style="fill: rgb(0,0,0); fill-opacity: 1.0; font-family: Times New Roman; font-size: 12px;" >Quercus_arkansana</text></g><rect x="20" y="37" width="16" height="16" style="fill: rgb(31,120,180); fill-opacity: 1.0" /><g ><text x="40" y="50" style="fill: rgb(0,0,0); fill-opacity: 1.0; font-family: Times New Roman; font-size: 12px;" >Quercus_falcata</text></g><rect x="20" y="57" width="16" height="16" style="fill: rgb(178,223,138); fill-opacity: 1.0" /><g ><text x="40" y="70" style="fill: rgb(0,0,0); fill-opacity: 1.0; font-family: Times New Roman; font-size: 12px;" >Quercus_hemisphaerica</text></g><rect x="20" y="77" width="16" height="16" style="fill: rgb(51,160,44); fill-opacity: 1.0" /><g ><text x="40" y="90" style="fill: rgb(0,0,0); fill-opacity: 1.0; font-family: Times New Roman; font-size: 12px;" >Quercus_imbricana</text></g><rect x="20" y="97" width="16" height="16" style="fill: rgb(251,154,153); fill-opacity: 1.0" /><g ><text x="40" y="110" style="fill: rgb(0,0,0); fill-opacity: 1.0; font-family: Times New Roman; font-size: 12px;" >Quercus_incana</text></g><rect x="20" y="117" width="16" height="16" style="fill: rgb(227,26,28); fill-opacity: 1.0" /><g ><text x="40" y="130" style="fill: rgb(0,0,0); fill-opacity: 1.0; font-family: Times New Roman; font-size: 12px;" >Quercus_laevis</text></g><rect x="20" y="137" width="16" height="16" style="fill: rgb(253,191,111); fill-opacity: 1.0" /><g ><text x="40" y="150" style="fill: rgb(0,0,0); fill-opacity: 1.0; font-family: Times New Roman; font-size: 12px;" >Quercus_marilandica</text></g><rect x="20" y="157" width="16" height="16" style="fill: rgb(255,127,0); fill-opacity: 1.0" /><g ><text x="40" y="170" style="fill: rgb(0,0,0); fill-opacity: 1.0; font-family: Times New Roman; font-size: 12px;" >Quercus_myrtifolia</text></g><rect x="20" y="177" width="16" height="16" style="fill: rgb(202,178,214); fill-opacity: 1.0" /><g ><text x="40" y="190" style="fill: rgb(0,0,0); fill-opacity: 1.0; font-family: Times New Roman; font-size: 12px;" >Quercus_nigra</text></g><rect x="20" y="197" width="16" height="16" style="fill: rgb(106,61,154); fill-opacity: 1.0" /><g ><text x="40" y="210" style="fill: rgb(0,0,0); fill-opacity: 1.0; font-family: Times New Roman; font-size: 12px;" >Quercus_pagoda</text></g><rect x="20" y="217" width="16" height="16" style="fill: rgb(255,255,0); fill-opacity: 1.0" /><g ><text x="40" y="230" style="fill: rgb(0,0,0); fill-opacity: 1.0; font-family: Times New Roman; font-size: 12px;" >Quercus_phellos</text></g><rect x="20" y="237" width="16" height="16" style="fill: rgb(77,0,26); fill-opacity: 1.0" /><g ><text x="40" y="250" style="fill: rgb(0,0,0); fill-opacity: 1.0; font-family: Times New Roman; font-size: 12px;" >Quercus_shumardii</text></g><rect x="20" y="257" width="16" height="16" style="fill: rgb(179,179,179); fill-opacity: 1.0" /><g ><text x="40" y="270" style="fill: rgb(0,0,0); fill-opacity: 1.0; font-family: Times New Roman; font-size: 12px;" >Quercus_velutina</text></g></svg>
